<svg width="64" height="64" viewBox="0 0 64 64" fill="none" xmlns="http://www.w3.org/2000/svg">
<g clip-path="url(#clip0)">
<path d="M37 48.0001H27C25.3375 48.0001 24 46.6626 24 45.0001V24.0001H13.0375C10.8125 24.0001 9.7 21.3126 11.275 19.7376L30.2875 0.712646C31.225 -0.224853 32.7625 -0.224853 33.7 0.712646L52.725 19.7376C54.3 21.3126 53.1875 24.0001 50.9625 24.0001H40V45.0001C40 46.6626 38.6625 48.0001 37 48.0001ZM64 47.0001V61.0001C64 62.6626 62.6625 64.0001 61 64.0001H3C1.3375 64.0001 0 62.6626 0 61.0001V47.0001C0 45.3376 1.3375 44.0001 3 44.0001H20V45.0001C20 48.8626 23.1375 52.0001 27 52.0001H37C40.8625 52.0001 44 48.8626 44 45.0001V44.0001H61C62.6625 44.0001 64 45.3376 64 47.0001ZM48.5 58.0001C48.5 56.6251 47.375 55.5001 46 55.5001C44.625 55.5001 43.5 56.6251 43.5 58.0001C43.5 59.3751 44.625 60.5001 46 60.5001C47.375 60.5001 48.5 59.3751 48.5 58.0001ZM56.5 58.0001C56.5 56.6251 55.375 55.5001 54 55.5001C52.625 55.5001 51.5 56.6251 51.5 58.0001C51.5 59.3751 52.625 60.5001 54 60.5001C55.375 60.5001 56.5 59.3751 56.5 58.0001Z" fill="#C70100"/>
</g>
<defs>
<clipPath id="clip0">
<rect width="64" height="64" fill="white"/>
</clipPath>
</defs>
</svg>
