<svg width="222" height="219" viewBox="0 0 222 219" fill="none" xmlns="http://www.w3.org/2000/svg">
<path d="M130.611 93.1024C139.034 83.3764 148.513 74.6171 158.872 66.9861C159.789 66.3443 160.881 66 162 66C163.119 66 164.211 66.3443 165.128 66.9861C175.487 74.6172 184.966 83.3764 193.389 93.1024C212.106 114.627 222 137.321 222 158.727C222 174.64 215.679 189.902 204.426 201.154C193.174 212.406 177.913 218.727 162 218.727C146.087 218.727 130.826 212.406 119.574 201.154C108.321 189.902 102 174.64 102 158.727C102 137.321 111.893 114.627 130.611 93.1024ZM124.355 165.134C125.68 172.924 129.396 180.109 134.987 185.693C140.578 191.277 147.767 194.984 155.559 196.299C156.267 196.422 156.992 196.403 157.693 196.245C158.393 196.086 159.056 195.791 159.642 195.375C160.229 194.96 160.727 194.433 161.109 193.825C161.491 193.216 161.749 192.538 161.868 191.83C161.987 191.121 161.966 190.396 161.804 189.696C161.642 188.996 161.343 188.335 160.925 187.75C160.507 187.166 159.978 186.67 159.368 186.291C158.757 185.912 158.078 185.657 157.369 185.541C151.811 184.603 146.683 181.959 142.695 177.976C138.706 173.993 136.056 168.868 135.111 163.311C134.864 161.89 134.064 160.624 132.886 159.791C131.708 158.958 130.248 158.626 128.826 158.867C127.403 159.108 126.134 159.903 125.297 161.077C124.459 162.252 124.12 163.71 124.355 165.134V165.134Z" fill="#C70100"/>
<path fill-rule="evenodd" clip-rule="evenodd" d="M81.458 1.41233C66.6205 12.3423 53.0442 24.8881 40.9795 38.8186C14.1699 69.6487 0 102.153 0 132.813C0 155.605 9.0541 177.463 25.1705 193.58C41.2869 209.696 63.1455 218.75 85.9375 218.75C100.028 218.75 113.762 215.29 126.003 208.839C122.632 206.62 119.47 204.05 116.574 201.154C105.321 189.902 99 174.64 99 158.727C99 137.321 108.893 114.627 127.611 93.1024C135.23 84.3056 143.712 76.2996 152.928 69.2039C146.946 58.9795 139.585 48.8111 130.896 38.8186C118.831 24.8881 105.255 12.3423 90.418 1.41233C89.1049 0.493076 87.5408 0 85.938 0C84.3351 0 82.7711 0.493076 81.458 1.41233ZM47.2464 171.435C39.2385 163.437 33.917 153.146 32.0195 141.988C31.6828 139.95 32.1675 137.861 33.3675 136.178C34.5675 134.496 36.3851 133.358 38.4224 133.013C40.4597 132.668 42.5508 133.143 44.238 134.336C45.9252 135.529 47.0711 137.342 47.4248 139.378C48.7784 147.337 52.5743 154.678 58.2865 160.383C63.9986 166.088 71.3441 169.874 79.3047 171.218C80.3203 171.384 81.293 171.749 82.1672 172.292C83.0413 172.835 83.7995 173.545 84.3983 174.382C84.9971 175.219 85.4246 176.166 85.6564 177.169C85.8882 178.171 85.9196 179.21 85.7488 180.225C85.578 181.239 85.2085 182.21 84.6614 183.082C84.1142 183.954 83.4003 184.708 82.5606 185.303C81.7209 185.898 80.7719 186.321 79.7682 186.548C78.7645 186.775 77.7259 186.802 76.7119 186.626C65.5519 184.742 55.2543 179.433 47.2464 171.435Z" fill="#C70100"/>
</svg>
