<svg id="Layer_1" enable-background="new 0 0 512 512" height="512" viewBox="0 0 512 512" width="512" xmlns="http://www.w3.org/2000/svg"><g><path d="m469.001 388.128c20.361-35.726 32.001-77.067 32.001-121.13 0-135.311-109.691-245.002-245.002-245.002s-245.002 109.691-245.002 245.002c0 44.063 11.64 85.404 32.001 121.13z" fill="#88ce65"/><path d="m230.485 510.682c8.387.868 16.898 1.318 25.515 1.318 8.721 0 17.333-.464 25.819-1.353v-133.647h-51.333v133.682z" fill="#73c3f9"/><path d="m281.819 377h-51.334v30.872c8.123 2.695 16.723 4.128 25.517 4.128 8.903 0 17.605-1.47 25.816-4.23v-30.77z" fill="#49b1f7"/><path d="m312.817 354.341 24.183-37.348c-5.015-1.548-10.117-2.932-15.333-4.136-10.152-10.152-12.726-29.399-13.189-42.865-5.298 6.171-10.858 11.333-16.171 15.458-10.352 8.039-23.126 12.405-36.282 12.405s-25.93-4.366-36.281-12.405c-5.313-4.125-10.874-9.288-16.172-15.458-.463 13.466-3.037 32.713-13.189 42.865-5.227 1.206-10.339 2.594-15.365 4.145l24.168 37.333c12.474 19.269 33.863 30.902 56.817 30.902 22.952.001 44.34-11.63 56.814-30.896z" fill="#ffaa7b"/><path d="m219.745 285.45c-5.313-4.126-10.873-9.288-16.172-15.458-.463 13.466-3.037 32.713-13.189 42.865-5.227 1.206-10.339 2.594-15.365 4.146l16.75 25.875c11.791 5.314 24.421 8.035 35.172 3.623 23.214-9.527 27.993-36.748 28.966-48.647-13.113-.027-25.842-4.389-36.162-12.404z" fill="#fc9460"/><path d="m210.237 330.676c-1.102.294-2.238.652-3.402 1.095-8.161 3.107-19.097 10.952-25.261 30.674-5.958.101-33.175 1.54-50.946 19.036-10.112 9.957-15.24 23.323-15.24 39.727v46.426c34.404 24.153 75.299 39.687 119.555 43.455v-167.847z" fill="#6c5475"/><path d="m180.274 315.437c-93.679 30.547-120.397 36.009-131.678 59.019-2.004 4.087-3.865 8.684-5.598 13.672 18.288 32.09 43.62 59.641 73.889 80.556 0-12.721 0-28.521 0-47.477 0-58.292 65.799-57.268 65.799-57.268 6.855-23.052 20.08-30.196 29.611-32.215z" fill="#56415e"/><path d="m469.001 388.128c-1.733-4.988-3.594-9.585-5.598-13.672-11.28-23.01-37.999-28.472-131.678-59.019l-32.24 16.397v176.317c72.664-13.016 134.21-58.072 169.516-120.023z" fill="#6c5475"/><path d="m351.434 158.082c6.504-26.523 11.815-66.265-2.247-99.333-27.193-63.944-101.2-60.002-120.812-57.75-2.059.236-3.092 2.585-1.921 4.294 11.756 17.162-34.301 1.613-59.334 54.123-15.866 33.279-11.879 72.461-6.079 98.667h190.393z" fill="#56415e"/><path d="m254.926 70.454s-7.372-16.954 11.297-30.954c18.644-13.982-9.149-39.103-9.221-39.168-12.505-.792-22.894.008-28.628.667-2.059.236-3.092 2.585-1.921 4.294 11.756 17.162-34.301 1.613-59.334 54.123-15.866 33.279-11.879 72.461-6.079 98.667h43.521l13.824-5.492z" fill="#45304c"/><path d="m355.257 154.721c-4.103-3.76-13.276-1.854-16.81.448.774 4.821.818 9.753.15 14.623l-4.17 30.372c0 2.448-.077 4.85-.219 7.21 10.169 3.067 16.22-6.062 17.071-12.327.366-2.697.965-5.355 1.796-7.949 2.704-8.446 12.462-22.956 2.182-32.377z" fill="#ffaa7b"/><path d="m156.744 154.721c4.103-3.76 13.276-1.854 16.81.448-.774 4.821-.818 9.753-.149 14.623l4.17 30.372c0 2.448.077 4.85.219 7.21-10.169 3.067-16.22-6.062-17.071-12.327-.366-2.697-.965-5.355-1.796-7.949-2.705-8.446-12.463-22.956-2.183-32.377z" fill="#fc9460"/><path d="m333.325 138.518c-4.621-7.249-3.09-13.17-3.015-20.103 0 0 3.898-31.917-35.411-43.25-11.38-3.281-27.439-5.243-43.894-4.612-11.451 8.073-18.991 19.919-18.991 36.705 0 7.716 1.663 13.744-3.071 21.566-5.106 8.435-8.076 20.602-6.389 33.542l4.249 32.589c0 46.851 23.748 78.697 43.949 95.217 2.874 2.35 5.941 4.383 9.14 6.131 4.393-1.934 8.559-4.404 12.391-7.38 19.831-15.4 43.144-45.085 43.144-88.759l4.17-30.372c1.643-11.966-1.209-23.331-6.272-31.274z" fill="#ffc7ab"/><path d="m270.955 288.264c-19.831-16.218-43.145-47.48-43.145-93.475l-4.171-31.993c-1.656-12.702 1.26-24.647 6.272-32.928 4.648-7.679 3.015-13.597 3.015-21.172 0-18.073 8.888-30.329 21.999-38.243-34.937.483-73.235 12.325-73.235 47.962 0 7.192 1.632 12.812-3.015 20.104-5.012 7.863-7.928 19.205-6.272 31.267l4.171 30.379c0 43.674 23.313 73.359 43.145 88.759 10.351 8.038 23.125 12.404 36.281 12.404 9.051 0 17.92-2.066 25.944-5.973-3.877-1.927-7.568-4.293-10.989-7.091z" fill="#ffaa7b"/><path d="m277.057 511.09c9.214-.784 18.284-2.073 27.179-3.849v-175.915l-27.179 11.916z" fill="#876d93"/><path d="m343.623 312.846c-8.473-9.243-18.401-17.061-29.405-23.135-1.151-.635-2.581.03-2.844 1.317-1.615 7.909-8.319 31.868-32.244 47.708-4.943 3.273-5.854 10.162-1.955 14.628l24.041 27.536c5.784 6.662 16.434 5.463 20.608-2.309 7.058-13.14 16.891-33.139 24.169-54.642 1.303-3.849.377-8.107-2.37-11.103z" fill="#a98bbc"/><path d="m232.885 338.737c-4.283-2.835-8.004-5.933-11.253-9.15-2.907-.234-8.478-.221-14.797 2.184-8.094 3.081-18.913 10.829-25.104 30.192 3.013 6.263 5.917 11.896 8.46 16.629 4.175 7.772 14.824 8.971 20.608 2.309l24.041-27.535c3.899-4.467 2.988-11.357-1.955-14.629z" fill="#876d93"/><path d="m223.451 331.326c-16.336-15.107-21.431-33.547-22.809-40.297-.263-1.288-1.694-1.953-2.845-1.318-11.003 6.074-20.932 13.891-29.404 23.135-2.747 2.996-3.673 7.254-2.37 11.104 4.934 14.58 11.042 28.461 16.665 39.988 11.465-38.556 40.76-32.613 40.763-32.612z" fill="#6c5475"/><path d="m414.102 79.852c-11.389 14.637-23.214 36.046-23.214 61.858 0 49.791-62 131.725 0 147.758 50.97 13.181 79.113 19.054 98.564 52.058 7.499-23.5 11.551-48.539 11.551-74.527-.001-75.051-33.757-142.205-86.901-187.147z" fill="#b4d667"/><path d="m97.898 79.852c11.389 14.637 23.214 36.046 23.214 61.858 0 49.791 62 131.725 0 147.758-50.97 13.181-79.114 19.054-98.563 52.058-7.499-23.5-11.551-48.539-11.551-74.527 0-75.051 33.756-142.205 86.9-187.147z" fill="#b4d667"/><path d="m437.608 431.418c-4.848-20.04-17.209-31.614-27.207-37.935-6.251-3.952-14.401.496-14.401 7.892v66.688c15.223-10.62 29.18-22.926 41.608-36.645z" fill="#56415e"/></g></svg>